<svg xmlns="http://www.w3.org/2000/svg" viewBox="0 0 32 32">
    <!-- Calculator Body -->
    <rect x="6" y="2" width="20" height="28" rx="2" fill="#4A5568" />
    
    <!-- Screen -->
    <rect x="8" y="4" width="16" height="6" rx="1" fill="#A0AEC0" />
    
    <!-- Number Display -->
    <rect x="9" y="5" width="14" height="4" rx="1" fill="#E2E8F0" />
    
    <!-- Buttons -->
    <!-- Row 1 -->
    <rect x="8" y="12" width="4" height="4" rx="1" fill="#A0AEC0" />
    <rect x="14" y="12" width="4" height="4" rx="1" fill="#A0AEC0" />
    <rect x="20" y="12" width="4" height="4" rx="1" fill="#A0AEC0" />
    
    <!-- Row 2 -->
    <rect x="8" y="18" width="4" height="4" rx="1" fill="#A0AEC0" />
    <rect x="14" y="18" width="4" height="4" rx="1" fill="#A0AEC0" />
    <rect x="20" y="18" width="4" height="4" rx="1" fill="#A0AEC0" />
    
    <!-- Row 3 -->
    <rect x="8" y="24" width="4" height="4" rx="1" fill="#A0AEC0" />
    <rect x="14" y="24" width="4" height="4" rx="1" fill="#A0AEC0" />
    <rect x="20" y="24" width="4" height="4" rx="1" fill="#4299E1" />
</svg>
